<svg width="100" height="100" viewBox="0 0 100 100" fill="none" xmlns="http://www.w3.org/2000/svg">
<circle cx="50" cy="50" r="50" fill="url(#paint0_linear_56_758)"/>
<path d="M34.666 23.6157H44.124C50.4294 23.6157 54.6929 23.859 56.9146 24.3457C59.1574 24.8324 60.9771 26.0807 62.3735 28.0908C63.7912 30.0798 64.5 33.2642 64.5 37.644C64.5 41.6431 64.0028 44.3302 63.0083 45.7056C62.0138 47.0809 60.0566 47.9061 57.1367 48.1812C59.7816 48.8371 61.5589 49.7152 62.4688 50.8154C63.3786 51.9157 63.9393 52.9313 64.1509 53.8623C64.3836 54.7721 64.5 57.3006 64.5 61.4478V75H52.0903V57.9248C52.0903 55.1742 51.8682 53.4709 51.4238 52.8149C51.0007 52.159 49.8687 51.8311 48.0278 51.8311V75H34.666V23.6157ZM48.0278 32.4072V43.833C49.5301 43.833 50.5775 43.632 51.1699 43.23C51.7835 42.8068 52.0903 41.4632 52.0903 39.1992V36.3745C52.0903 34.7453 51.7941 33.6768 51.2017 33.1689C50.6304 32.6611 49.5724 32.4072 48.0278 32.4072Z" fill="white"/>
<defs>
<linearGradient id="paint0_linear_56_758" x1="50" y1="0" x2="50" y2="100" gradientUnits="userSpaceOnUse">
<stop/>
<stop offset="1" stop-color="#343434"/>
</linearGradient>
</defs>
</svg>
